<svg width="11" height="11" viewBox="0 0 11 11" fill="none" xmlns="http://www.w3.org/2000/svg">
<circle cx="5.90695" cy="5.90915" r="5.09091" fill="#E3FCEF"/>
<path fill-rule="evenodd" clip-rule="evenodd" d="M10.2706 5.90914C10.2706 8.31911 8.31691 10.2728 5.90694 10.2728C3.49697 10.2728 1.5433 8.31911 1.5433 5.90914C1.5433 3.49917 3.49697 1.5455 5.90694 1.5455C8.31691 1.5455 10.2706 3.49917 10.2706 5.90914ZM4.76472 5.50285C4.81795 5.52572 4.8661 5.55896 4.90636 5.60064L5.47058 6.16486L6.90752 4.72791C6.94777 4.68623 6.99593 4.65299 7.04916 4.63012C7.1024 4.60725 7.15966 4.59521 7.2176 4.59471C7.27554 4.59421 7.333 4.60525 7.38663 4.62719C7.44026 4.64913 7.48898 4.68153 7.52995 4.7225C7.57092 4.76347 7.60332 4.81219 7.62526 4.86582C7.6472 4.91945 7.65824 4.97691 7.65774 5.03485C7.65724 5.09279 7.6452 5.15005 7.62233 5.20329C7.59946 5.25653 7.56622 5.30468 7.52454 5.34493L5.77909 7.09038C5.69725 7.17219 5.58628 7.21814 5.47058 7.21814C5.35487 7.21814 5.2439 7.17219 5.16207 7.09038L4.28934 6.21766C4.24766 6.1774 4.21442 6.12925 4.19155 6.07601C4.16868 6.02278 4.15664 5.96552 4.15614 5.90758C4.15564 5.84964 4.16668 5.79218 4.18862 5.73855C4.21056 5.68492 4.24296 5.6362 4.28393 5.59523C4.3249 5.55426 4.37362 5.52186 4.42725 5.49992C4.48088 5.47798 4.53834 5.46693 4.59628 5.46744C4.65422 5.46794 4.71148 5.47998 4.76472 5.50285Z" fill="#038B00"/>
</svg>
