<svg width="93" height="21" viewBox="0 0 93 21" fill="none" xmlns="http://www.w3.org/2000/svg">
<path d="M71.6617 8.65173H53.5267C53.0617 8.65173 52.7 8.29796 52.7 7.84311C52.7 7.38826 53.0617 7.03448 53.5267 7.03448H71.6617C72.1267 7.03448 72.4883 7.38826 72.4883 7.84311C72.4883 8.29796 72.1267 8.65173 71.6617 8.65173Z" fill="url(#paint0_linear_1_1315)"/>
<path d="M74.2451 11.7346H55.1284C54.6634 11.7346 54.3018 11.3808 54.3018 10.9259C54.3018 10.4711 54.6634 10.1173 55.1284 10.1173H74.2451C74.7101 10.1173 75.0718 10.4711 75.0718 10.9259C75.0718 11.3808 74.7101 11.7346 74.2451 11.7346Z" fill="url(#paint1_linear_1_1315)"/>
<path d="M70.0083 14.9185H53.5267C53.0617 14.9185 52.7 14.5647 52.7 14.1099C52.7 13.655 53.0617 13.3013 53.5267 13.3013H70.0083C70.4733 13.3013 70.835 13.655 70.835 14.1099C70.835 14.5647 70.4733 14.9185 70.0083 14.9185Z" fill="url(#paint2_linear_1_1315)"/>
<path d="M6.3033 5.21508H5.06329C5.06329 4.86131 5.06329 4.50754 5.06329 4.10322C5.06329 3.74945 5.06329 3.39568 5.06329 2.99137C5.06329 2.83975 5.01163 2.68814 4.95996 2.58706C4.9083 2.48598 4.75329 2.48598 4.59829 2.48598C4.49496 2.48598 4.39163 2.48598 4.23663 2.53652C4.08163 2.53652 3.92663 2.58706 3.8233 2.6376C3.71996 2.68814 3.51329 2.73868 3.35829 2.78921C3.20329 2.83975 3.09996 2.89029 2.99663 2.89029C2.84163 2.94083 2.73829 2.99137 2.63496 3.09245C2.53163 3.19353 2.53163 3.24406 2.53163 3.34514C2.53163 3.64837 2.53163 3.95161 2.53163 4.25484C2.53163 4.55807 2.53163 4.86131 2.53163 5.16454H1.4983C1.3433 5.21508 1.23996 5.21508 1.13663 5.31616C1.0333 5.41723 0.981628 5.46777 0.981628 5.66993V6.9334C0.981628 7.08502 1.0333 7.23663 1.08496 7.28717C1.13663 7.33771 1.29163 7.38825 1.4983 7.38825H2.53163V13.2508C2.53163 13.7056 2.63496 14.1605 2.78996 14.5142C2.94496 14.868 3.2033 15.2218 3.5133 15.4745C3.8233 15.7272 4.18496 15.9293 4.59829 16.0304C5.01163 16.182 5.42496 16.2325 5.94163 16.2325C6.09663 16.2325 6.19996 16.182 6.3033 16.1315C6.40663 16.0809 6.40663 15.9293 6.40663 15.7777V14.5648C6.40663 14.4637 6.35496 14.3121 6.3033 14.2615C6.25163 14.211 6.1483 14.1099 5.9933 14.1099C5.63163 14.1099 5.42496 14.0088 5.26996 13.8572C5.11496 13.7056 5.06329 13.4024 5.06329 13.0486V11.8862C5.06329 11.8862 5.06329 11.8862 5.06329 11.8357C5.06329 11.7851 5.06329 11.8357 5.06329 11.7851V10.1173C5.06329 9.91519 5.06329 9.71304 5.06329 9.56142C5.06329 9.35927 5.06329 9.20765 5.06329 9.00549V7.33771H6.35496C6.50996 7.33771 6.6133 7.28717 6.71663 7.23663C6.81996 7.18609 6.81996 7.03448 6.81996 6.83232V5.66993C6.81996 5.51831 6.7683 5.3667 6.71663 5.31616C6.66496 5.26562 6.4583 5.16454 6.3033 5.21508ZM18.4966 7.28717C18.2383 6.9334 17.9283 6.63017 17.5666 6.32693C17.205 6.0237 16.8433 5.82155 16.4816 5.61939C16.0683 5.41723 15.655 5.26562 15.2416 5.16454C14.7766 5.06346 14.3633 5.01292 13.8983 5.01292C13.33 5.01292 12.8133 5.06346 12.3483 5.21508C11.8316 5.3667 11.3666 5.51831 10.9533 5.77101C10.54 6.0237 10.1266 6.32693 9.81663 6.68071C9.45496 7.03448 9.19663 7.43879 8.93829 7.8431C8.67996 8.24741 8.52496 8.70226 8.36996 9.20765C8.26663 9.71304 8.1633 10.1679 8.1633 10.7238C8.1633 11.5324 8.3183 12.2905 8.6283 12.9475C8.9383 13.6551 9.4033 14.2615 9.91996 14.7669C10.4366 15.2723 11.1083 15.6766 11.8316 15.9799C12.555 16.2831 13.33 16.4347 14.105 16.4347C14.8283 16.4347 15.5516 16.3336 16.1716 16.0809C16.7916 15.8282 17.36 15.4745 17.8766 15.0702C18.0833 14.9185 18.2383 14.7669 18.2383 14.5648C18.2383 14.5142 18.2383 14.4637 18.1866 14.3626C18.135 14.2615 18.0833 14.211 18.0316 14.1099C17.98 14.0088 17.8766 13.9078 17.7733 13.8067C17.67 13.7056 17.515 13.5035 17.36 13.3013C17.3083 13.2002 17.205 13.1497 17.1533 13.1497C17.1016 13.0991 17.05 13.0991 16.9983 13.0991C16.9466 13.0991 16.8433 13.0991 16.7916 13.1497C16.74 13.2002 16.6366 13.2508 16.585 13.3013C16.43 13.4024 16.275 13.554 16.12 13.6551C15.9133 13.7561 15.7583 13.8572 15.5516 13.9583C15.345 14.0594 15.0866 14.1099 14.88 14.1605C14.6733 14.211 14.3633 14.2615 14.105 14.2615C13.7433 14.2615 13.3816 14.211 13.0716 14.1099C12.71 14.0088 12.4 13.8067 12.09 13.6045C11.78 13.4024 11.5216 13.0991 11.315 12.7959C11.1083 12.4927 10.9533 12.0884 10.85 11.6841H18.6C18.8066 11.6841 18.9616 11.6841 19.1166 11.6335C19.2716 11.583 19.3233 11.5324 19.375 11.4819C19.4266 11.4314 19.4783 11.3303 19.4783 11.2292C19.4783 11.1281 19.4783 10.9765 19.4783 10.8249C19.4783 10.1173 19.375 9.51088 19.22 8.95495C19.065 8.39903 18.8583 7.79256 18.4966 7.28717ZM10.7466 9.56142C10.85 9.20765 11.005 8.90442 11.2116 8.60118C11.4183 8.29795 11.6766 8.04525 11.935 7.8431C12.1933 7.64094 12.5033 7.43879 12.865 7.33771C13.175 7.23663 13.5366 7.13556 13.8983 7.13556C14.3116 7.13556 14.6733 7.18609 15.035 7.28717C15.3966 7.38825 15.7066 7.59041 15.965 7.79256C16.2233 7.99472 16.4816 8.24741 16.6366 8.55064C16.8433 8.85388 16.9983 9.15711 17.05 9.51088L10.7466 9.56142ZM23.715 1.93005H22.165C22.01 1.93005 21.855 1.98059 21.8033 2.08167C21.7 2.18275 21.7 2.28383 21.7 2.43544V15.7272C21.7 15.8788 21.7516 16.0304 21.8033 16.1315C21.9066 16.2325 22.01 16.2831 22.2166 16.2831H23.715C23.87 16.2831 24.025 16.2325 24.1283 16.1315C24.2316 16.0304 24.2833 15.9293 24.2833 15.7272V2.43544C24.2833 2.28383 24.2316 2.18275 24.1283 2.08167C23.9216 1.98059 23.8183 1.93005 23.715 1.93005ZM36.58 7.28717C36.3216 6.9334 36.0116 6.63017 35.65 6.32693C35.2883 6.0237 34.9266 5.82155 34.5133 5.61939C34.1 5.41723 33.6866 5.26562 33.2733 5.16454C32.86 5.06346 32.395 5.01292 31.93 5.01292C31.3616 5.01292 30.845 5.06346 30.38 5.21508C29.8633 5.3667 29.45 5.51831 28.985 5.77101C28.5716 6.0237 28.1583 6.32693 27.8483 6.68071C27.4866 7.03448 27.2283 7.43879 26.97 7.8431C26.7116 8.24741 26.5566 8.70226 26.4016 9.20765C26.2983 9.71304 26.195 10.1679 26.195 10.7238C26.195 11.5324 26.35 12.2905 26.66 12.9475C26.97 13.6551 27.435 14.2615 27.9516 14.7669C28.4683 15.2723 29.14 15.6766 29.8633 15.9799C30.5866 16.2831 31.3616 16.4347 32.1366 16.4347C32.86 16.4347 33.5833 16.3336 34.2033 16.0809C34.8233 15.8282 35.3916 15.4745 35.9083 15.0702C36.115 14.9185 36.27 14.7669 36.27 14.5648C36.27 14.5142 36.27 14.4637 36.2183 14.3626C36.1666 14.2615 36.115 14.211 36.0633 14.1099C36.0116 14.0088 35.9083 13.9078 35.805 13.8067C35.7016 13.7056 35.5466 13.5035 35.3916 13.3013C35.34 13.2002 35.2366 13.1497 35.185 13.1497C35.1333 13.0991 35.0816 13.0991 35.03 13.0991C34.9783 13.0991 34.875 13.0991 34.8233 13.1497C34.7716 13.2002 34.6683 13.2508 34.6166 13.3013C34.4616 13.4024 34.3066 13.554 34.1516 13.6551C33.9966 13.7561 33.79 13.8572 33.5316 13.9583C33.2733 14.0594 33.0666 14.1099 32.86 14.1605C32.6533 14.211 32.3433 14.2615 32.085 14.2615C31.7233 14.2615 31.3616 14.211 31.0516 14.1099C30.69 14.0088 30.38 13.8067 30.07 13.6045C29.76 13.4024 29.5016 13.0991 29.295 12.7959C29.0883 12.4927 28.9333 12.0884 28.8816 11.6841H36.7866C36.9933 11.6841 37.1483 11.6841 37.3033 11.6335C37.4583 11.583 37.51 11.5324 37.5616 11.4819C37.6133 11.4314 37.665 11.3303 37.665 11.2292C37.665 11.1281 37.665 10.9765 37.665 10.8249C37.665 10.1173 37.5616 9.51088 37.4066 8.95495C37.2516 8.39903 36.9416 7.79256 36.58 7.28717ZM28.8816 9.56142C28.985 9.20765 29.14 8.90442 29.3466 8.60118C29.5533 8.29795 29.8116 8.04525 30.07 7.8431C30.3283 7.64094 30.6383 7.43879 31 7.33771C31.31 7.23663 31.6716 7.13556 32.0333 7.13556C32.4466 7.13556 32.8083 7.18609 33.17 7.28717C33.5316 7.38825 33.8416 7.59041 34.1 7.79256C34.3583 7.99472 34.6166 8.24741 34.7716 8.55064C34.9783 8.85388 35.1333 9.15711 35.185 9.51088L28.8816 9.56142ZM50.685 7.8431C50.4266 7.43879 50.1166 7.03448 49.8066 6.68071C49.445 6.32693 49.0833 6.0237 48.67 5.77101C48.2566 5.51831 47.7916 5.31616 47.275 5.21508C46.7583 5.114 46.2933 5.01292 45.725 5.01292C45.3116 5.01292 44.8983 5.06346 44.5883 5.16454C44.2266 5.21508 43.9166 5.3667 43.6066 5.51831C43.2966 5.66993 43.0383 5.87208 42.8316 6.07424C42.625 6.27639 42.3666 6.52909 42.16 6.73124L41.9533 5.66993C41.9016 5.51831 41.85 5.3667 41.7983 5.31616C41.7466 5.21508 41.5916 5.16454 41.4366 5.16454H40.5583C40.455 5.16454 40.4033 5.16454 40.3 5.16454C40.1966 5.16454 40.145 5.21508 40.0416 5.21508C39.9383 5.26562 39.8866 5.31616 39.7833 5.3667C39.7316 5.41723 39.68 5.51831 39.68 5.66993V19.1133C39.68 19.2649 39.7316 19.366 39.835 19.467C39.9383 19.5681 40.0933 19.6187 40.1966 19.6187H41.695C41.85 19.6187 42.005 19.5681 42.1083 19.467C42.2116 19.366 42.2633 19.2649 42.2633 19.1133V14.868C42.47 15.0702 42.6766 15.2723 42.935 15.4745C43.1416 15.6766 43.4 15.8282 43.71 15.9799C43.9683 16.1315 44.2783 16.2325 44.5883 16.3336C44.8983 16.4347 45.26 16.4347 45.6733 16.4347C46.19 16.4347 46.7066 16.3842 47.2233 16.2325C47.6883 16.0809 48.1533 15.9293 48.6183 15.6766C49.0316 15.4239 49.445 15.1207 49.755 14.7669C50.1166 14.4131 50.375 14.0088 50.6333 13.6045C50.8916 13.2002 51.0466 12.7454 51.2016 12.24C51.3566 11.7346 51.4083 11.2292 51.4083 10.7238C51.4083 10.2184 51.3566 9.71304 51.2016 9.20765C51.0466 8.70226 50.8916 8.24741 50.685 7.8431ZM48.67 12.0378C48.515 12.4421 48.2566 12.7959 47.9983 13.1497C47.74 13.5035 47.3783 13.7056 46.965 13.9078C46.5516 14.1099 46.1383 14.1605 45.6733 14.1605C45.2083 14.1605 44.7433 14.0594 44.33 13.9078C43.9166 13.7056 43.555 13.4529 43.245 13.1497C42.935 12.8464 42.6766 12.4421 42.5216 12.0378C42.3666 11.6335 42.2633 11.1787 42.2633 10.7238V10.6733C42.2633 10.2184 42.3666 9.76357 42.5733 9.4098C42.78 9.05603 42.9866 8.65172 43.2966 8.34849C43.6066 8.04525 43.9683 7.79256 44.3816 7.64094C44.795 7.43879 45.26 7.38825 45.725 7.38825C46.19 7.38825 46.655 7.48933 47.0166 7.64094C47.3783 7.79256 47.7916 8.09579 48.05 8.39903C48.3083 8.70226 48.5666 9.05603 48.7216 9.51088C48.8766 9.96573 48.98 10.37 48.98 10.8249C48.98 11.2797 48.825 11.6335 48.67 12.0378ZM85.0433 6.0237C84.785 5.87208 84.5783 5.72047 84.3716 5.56885C84.165 5.41723 83.9583 5.3667 83.7516 5.26562C83.545 5.16454 83.2866 5.114 83.08 5.114C82.8733 5.114 82.5633 5.06346 82.2533 5.06346C81.9433 5.06346 81.6333 5.114 81.375 5.16454C81.1166 5.26562 80.8583 5.3667 80.6516 5.46777C80.445 5.61939 80.2383 5.77101 80.0833 5.92262C79.9283 6.07424 79.7733 6.27639 79.6183 6.42801C79.5666 6.32693 79.5666 6.17532 79.5666 6.0237C79.5666 5.87208 79.515 5.72047 79.4633 5.61939C79.4116 5.51831 79.36 5.3667 79.2566 5.31616C79.205 5.21508 79.05 5.16454 78.895 5.16454H77.7583C77.6033 5.16454 77.5 5.21508 77.3966 5.31616C77.2933 5.41723 77.2416 5.51831 77.2416 5.72047V15.7272C77.2416 16.0809 77.4483 16.2325 77.81 16.2325H79.2566C79.6183 16.2325 79.825 16.0809 79.825 15.7272V9.15711C79.9283 8.60118 80.1866 8.09579 80.5483 7.79256C80.91 7.43879 81.375 7.28717 81.8916 7.28717C82.0983 7.28717 82.2533 7.28717 82.46 7.33771C82.615 7.38825 82.77 7.43879 82.925 7.48933C83.08 7.53987 83.235 7.64094 83.39 7.74202C83.545 7.8431 83.7516 7.94418 83.9066 8.04525C84.01 8.09579 84.1133 8.09579 84.165 8.09579C84.2166 8.09579 84.2683 8.09579 84.32 8.04525C84.3716 7.99472 84.4233 7.99472 84.475 7.94418L85.1983 6.83232C85.25 6.78178 85.25 6.73124 85.25 6.68071C85.25 6.63017 85.25 6.57963 85.3016 6.52909C85.3016 6.42801 85.25 6.32693 85.1983 6.22586C85.25 6.17532 85.1466 6.07424 85.0433 6.0237ZM91.8633 5.31616C91.76 5.26562 91.6566 5.21508 91.5016 5.21508H90.21C90.21 4.86131 90.21 4.50754 90.21 4.10322C90.21 3.74945 90.21 3.39568 90.21 2.99137C90.21 2.83975 90.1583 2.68814 90.1066 2.58706C90.055 2.48598 89.9516 2.43544 89.745 2.43544C89.6416 2.43544 89.5383 2.43544 89.3833 2.48598C89.2283 2.53652 89.0733 2.53652 88.9183 2.58706C88.7633 2.6376 88.6083 2.68814 88.4533 2.73868C88.2983 2.78921 88.195 2.83975 88.0916 2.83975C87.9366 2.89029 87.8333 2.94083 87.73 2.99137C87.6266 3.04191 87.6266 3.14299 87.6266 3.24406C87.6266 3.5473 87.6266 3.85053 87.6266 4.15376C87.6266 4.457 87.6266 4.76023 87.6266 5.06346H86.5933C86.4383 5.06346 86.2833 5.114 86.18 5.16454C86.0766 5.21508 86.0766 5.3667 86.0766 5.51831V6.78178C86.0766 6.9334 86.1283 7.08502 86.18 7.13556C86.2316 7.18609 86.3866 7.23663 86.5933 7.23663H87.6266V13.3013C87.6266 13.7561 87.73 14.211 87.885 14.5648C88.04 14.9185 88.2983 15.2723 88.6083 15.525C88.9183 15.7777 89.28 15.9799 89.6933 16.0809C90.1066 16.2325 90.52 16.2831 91.0366 16.2831C91.1916 16.2831 91.295 16.2325 91.3983 16.182C91.5016 16.1315 91.5016 15.9799 91.5016 15.8282V14.6153C91.5016 14.5142 91.45 14.3626 91.3983 14.3121C91.3466 14.2615 91.2433 14.1605 91.0883 14.1605C90.7266 14.1605 90.52 14.0594 90.365 13.9078C90.21 13.7561 90.1583 13.4529 90.1583 13.0991V11.9367C90.1583 11.9367 90.1583 11.9367 90.1583 11.8862C90.1583 11.8357 90.1583 11.8862 90.1583 11.8357V10.1679C90.1583 9.96573 90.1583 9.76358 90.1583 9.61196C90.1583 9.4098 90.1583 9.25819 90.1583 9.05603V7.38825H91.45C91.605 7.38825 91.7083 7.33771 91.8116 7.28717C91.915 7.23663 91.915 7.08502 91.915 6.88286V5.66993C92.0183 5.51831 91.9666 5.3667 91.8633 5.31616ZM66.805 2.28383C66.2883 2.03113 65.4616 1.77844 64.3766 2.28383C62.5166 3.14299 61.225 4.86131 61.1733 4.91185C60.915 5.26562 60.9666 5.77101 61.3283 6.0237C61.69 6.2764 62.2066 6.22586 62.465 5.82155C62.465 5.82155 63.6016 4.35592 65.0483 3.69891C65.4616 3.5473 65.7716 3.49676 66.03 3.64837C66.34 3.79999 66.5983 4.2043 66.65 4.65915C66.805 5.82155 66.9083 7.38825 66.185 9.81412C65.4616 12.24 64.17 14.6153 62.6716 16.182C61.3283 17.6476 60.2433 18.0519 59.83 18.0014C59.6233 17.9509 59.055 17.9003 58.8483 16.3336C58.7966 15.8788 58.3833 15.5755 57.9183 15.6766C57.4533 15.7272 57.195 16.1315 57.2466 16.5863C57.5566 18.3552 58.3316 19.366 59.6233 19.5681C59.7266 19.5681 59.83 19.6187 59.985 19.6187C61.5866 19.6187 63.24 18.0014 63.9633 17.2433C65.6166 15.4745 67.0116 12.897 67.8383 10.269C68.665 7.53987 68.5616 5.82155 68.355 4.457C68.1483 3.49676 67.58 2.6376 66.805 2.28383Z" fill="#0058D8"/>
<defs>
<linearGradient id="paint0_linear_1_1315" x1="52.7052" y1="7.83805" x2="72.4832" y2="7.83805" gradientUnits="userSpaceOnUse">
<stop offset="0.4497" stop-color="#0058D8"/>
<stop offset="0.75" stop-color="#0058D8" stop-opacity="0.1"/>
<stop offset="1" stop-color="#0058D8"/>
</linearGradient>
<linearGradient id="paint1_linear_1_1315" x1="54.3224" y1="10.9563" x2="75.0563" y2="10.9563" gradientUnits="userSpaceOnUse">
<stop offset="0.33" stop-color="#0058D8"/>
<stop offset="0.6" stop-color="#0058D8" stop-opacity="0.1"/>
<stop offset="0.81" stop-color="#0058D8"/>
</linearGradient>
<linearGradient id="paint2_linear_1_1315" x1="52.7052" y1="14.0998" x2="70.8247" y2="14.0998" gradientUnits="userSpaceOnUse">
<stop offset="0.45" stop-color="#0058D8"/>
<stop offset="0.7" stop-color="#0058D8" stop-opacity="0.1"/>
<stop offset="0.93" stop-color="#0058D8"/>
</linearGradient>
</defs>
</svg>
